<?xml version="1.0" encoding="utf-8"?>
<!-- Generated by IcoMoon.io -->
<!DOCTYPE svg PUBLIC "-//W3C//DTD SVG 1.1//EN" "http://www.w3.org/Graphics/SVG/1.1/DTD/svg11.dtd">
<svg version="1.1" xmlns="http://www.w3.org/2000/svg" xmlns:xlink="http://www.w3.org/1999/xlink" width="40" height="40" viewBox="0 0 44 44">
<g id="icomoon-ignore">
</g>
<path d="M33.856 28.182c0 0 4.142 13.668 2.142 15.668s-13.918-6.708-13.918-6.708-12.082 8.708-14.082 6.708 2.306-15.668 2.306-15.668-12.306-10.332-10.306-12.332 14.804-2.172 14.804-2.172 5.36-13.826 7.278-13.826c1.918-0.002 7.278 13.826 7.278 13.826s12.64 0.172 14.64 2.172-10.142 12.332-10.142 12.332zM27.498 17.85c-2-2-4.624-12-5.5-12s-3.5 10-5.5 12c0 0-10.5 0-10.5 1s8 5 8 8-3 11-2 12 7.062-6 10-6 9 7 10 6-2-9-2-12 8-7 8-8-10.5-1-10.5-1z" fill="#FFE181"></path>
</svg>
